<?xml version="1.0" standalone="no"?><!DOCTYPE svg PUBLIC "-//W3C//DTD SVG 1.1//EN" "http://www.w3.org/Graphics/SVG/1.1/DTD/svg11.dtd"><svg t="1562898883537" class="icon" viewBox="0 0 1024 1024" version="1.1" xmlns="http://www.w3.org/2000/svg" p-id="13480" xmlns:xlink="http://www.w3.org/1999/xlink" width="128" height="128"><defs><style type="text/css"></style></defs><path d="M713.337905 1.024v156.233143c0 45.543619 38.326857 82.456381 85.625905 82.456381h158.427428L713.337905 1.024z m0 0" p-id="13481"></path><path d="M798.96381 297.642667c-85.625905 0-144.969143-57.929143-144.969143-140.385524V1.024H152.283429C104.935619 1.024 66.608762 38.034286 66.608762 83.577905v856.892952c0 45.641143 38.326857 82.505143 85.674667 82.505143h719.481904c47.299048 0 85.625905-36.912762 85.625905-82.505143V297.642667h-158.427428z m-9.898667 565.394285H234.983619c-15.311238 0-27.696762-13.653333-27.696762-30.47619s12.385524-30.427429 27.696762-30.427429h554.032762c15.262476 0 27.648 13.604571 27.648 30.427429s-12.336762 30.47619-27.599238 30.47619z m0-187.489523H234.983619c-15.262476 0-27.745524-13.653333-27.745524-30.476191s12.483048-30.427429 27.745524-30.427428h554.032762c15.262476 0 27.648 13.604571 27.648 30.427428s-12.385524 30.47619-27.599238 30.476191z m0.048762-187.538286H234.934857c-15.262476 0-27.696762-13.653333-27.696762-30.476191s12.434286-30.47619 27.696762-30.47619h554.130286c15.262476 0 27.599238 13.653333 27.599238 30.47619s-12.336762 30.47619-27.550476 30.476191z" p-id="13482"></path></svg>