<?xml version="1.0" standalone="no"?><!DOCTYPE svg PUBLIC "-//W3C//DTD SVG 1.1//EN" "http://www.w3.org/Graphics/SVG/1.1/DTD/svg11.dtd"><svg t="1562900913182" class="icon" viewBox="0 0 1024 1024" version="1.1" xmlns="http://www.w3.org/2000/svg" p-id="14967" xmlns:xlink="http://www.w3.org/1999/xlink" width="128" height="128"><defs><style type="text/css"></style></defs><path d="M329.142857 336.457143m-73.142857 0a73.142857 73.142857 0 1 0 146.285714 0 73.142857 73.142857 0 1 0-146.285714 0Z" p-id="14968"></path><path d="M804.571429 0H219.428571C95.085714 0 0 95.085714 0 219.428571v585.142858c0 124.342857 95.085714 219.428571 219.428571 219.428571h585.142858c124.342857 0 219.428571-95.085714 219.428571-219.428571V219.428571c0-124.342857-95.085714-219.428571-219.428571-219.428571z m146.285714 804.571429c0 80.457143-65.828571 146.285714-146.285714 146.285714H219.428571c-80.457143 0-146.285714-65.828571-146.285714-146.285714v-51.2L241.371429 585.142857l160.914285 146.285714c14.628571 14.628571 36.571429 14.628571 51.2-7.314285l241.371429-292.571429 234.057143 292.571429c7.314286 7.314286 14.628571 7.314286 21.942857 14.628571v65.828572z m0-168.228572L724.114286 358.4c-14.628571-14.628571-43.885714-14.628571-58.514286 0l-241.371429 292.571429L263.314286 512c-14.628571-14.628571-36.571429-14.628571-43.885715 0L73.142857 650.971429V219.428571c0-80.457143 65.828571-146.285714 146.285714-146.285714h585.142858c80.457143 0 146.285714 65.828571 146.285714 146.285714v416.914286z" p-id="14969"></path></svg>