<?xml version="1.0" standalone="no"?><!DOCTYPE svg PUBLIC "-//W3C//DTD SVG 1.1//EN" "http://www.w3.org/Graphics/SVG/1.1/DTD/svg11.dtd"><svg t="1562896927365" class="icon" viewBox="0 0 1024 1024" version="1.1" xmlns="http://www.w3.org/2000/svg" p-id="7493" width="128" height="128" xmlns:xlink="http://www.w3.org/1999/xlink"><defs><style type="text/css"></style></defs><path d="M153.892571 745.398857C108.763429 676.352 87.771429 598.308571 87.771429 517.12c0-231.350857 189.293714-420.571429 420.571428-420.571429 231.350857 0 420.571429 189.293714 420.571429 420.571429s-189.220571 420.571429-420.571429 420.571429a414.573714 414.573714 0 0 1-180.224-39.058286c-5.997714-2.998857-24.064-2.998857-30.061714-2.998857-29.988571 8.996571-78.116571 24.064-138.24 42.057143-11.995429 2.998857-20.992 0-29.988572-8.996572s-11.995429-18.066286-8.996571-29.988571c17.993143-57.124571 29.988571-99.181714 39.058286-129.243429 0-5.997714-2.998857-20.992-5.997715-24.064zM512.438857 461.531429c-26.331429 0-52.662857 22.528-52.662857 52.662857 0 26.331429 26.331429 52.662857 52.662857 52.662857s52.662857-26.331429 52.662857-52.662857-26.331429-52.662857-52.662857-52.662857z m210.578286 0c-26.331429 0-52.662857 22.528-52.662857 52.662857 0 26.331429 26.331429 52.662857 52.662857 52.662857s52.662857-26.331429 52.662857-52.662857-26.331429-52.662857-52.662857-52.662857z m-421.156572 0c-26.331429 0-52.662857 22.528-52.662857 52.662857 0 26.331429 26.331429 52.662857 52.662857 52.662857s52.662857-26.331429 52.662858-52.662857-26.331429-52.662857-52.662858-52.662857z" p-id="7494"></path></svg>