<?xml version="1.0" standalone="no"?><!DOCTYPE svg PUBLIC "-//W3C//DTD SVG 1.1//EN" "http://www.w3.org/Graphics/SVG/1.1/DTD/svg11.dtd"><svg t="1563257179459" class="icon" viewBox="0 0 1024 1024" version="1.1" xmlns="http://www.w3.org/2000/svg" p-id="3489" xmlns:xlink="http://www.w3.org/1999/xlink" width="128" height="128"><defs><style type="text/css"></style></defs><path d="M333.622 16.445H142.383C65.227 16.445 0.61 80.456 0.61 157.615v191.237c0 77.157 64.618 138.534 141.774 138.534H471.55V157.614c0-77.158-60.77-141.17-137.927-141.17z m68.84 401.854H142.383c-38.579 0-71.537-30.868-71.537-69.447V157.615c0-38.58 32.958-70.931 71.537-70.931h191.238c38.579 0 68.84 32.351 68.84 70.93V418.3zM870.02 16.445H678.782c-77.156 0-141.601 64.011-141.601 141.17v329.77h332.84c77.156 0 138.1-61.376 138.1-138.533V157.615c0.001-77.158-60.943-141.17-138.1-141.17z m67.863 332.407c0 38.58-29.285 69.447-67.862 69.447H606.267V157.615c0-38.58 33.937-70.931 72.515-70.931H870.02c38.579 0 67.862 32.351 67.862 70.93v191.238zM0.609 694.013V885.25c0 77.157 64.618 138.708 141.774 138.708h191.238c77.156 0 137.928-61.55 137.928-138.708V553.017H142.383C65.227 553.017 0.61 616.857 0.61 694.013z m401.853 191.239c0 38.58-30.262 68.47-68.84 68.47H142.384c-38.579 0-71.537-29.89-71.537-68.47v-191.24c0-38.579 32.958-71.908 71.537-71.908h260.08l-0.002 263.148zM870.02 553.017H537.18V885.25c0 77.157 64.445 138.708 141.602 138.708H870.02c77.156 0 138.1-61.55 138.1-138.708V694.013c0.001-77.157-60.943-140.996-138.1-140.996z m67.863 332.235c0 38.58-29.285 68.47-67.862 68.47H678.782c-38.579 0-72.515-29.89-72.515-68.47V622.105h263.754c38.579 0 67.862 33.33 67.862 71.909v191.238z" p-id="3490"></path></svg>