<?xml version="1.0" standalone="no"?><!DOCTYPE svg PUBLIC "-//W3C//DTD SVG 1.1//EN" "http://www.w3.org/Graphics/SVG/1.1/DTD/svg11.dtd"><svg t="1562897008846" class="icon" viewBox="0 0 1024 1024" version="1.1" xmlns="http://www.w3.org/2000/svg" p-id="8183" xmlns:xlink="http://www.w3.org/1999/xlink" width="128" height="128"><defs><style type="text/css"></style></defs><path d="M832 0 192 0C121.6 0 64 57.6 64 128l0 576c0 70.4 57.6 128 128 128l128 0 192 192 192-192 128 0c70.4 0 128-57.6 128-128L960 128C960 57.6 902.4 0 832 0zM832 640l-192 0-128 192-128-192L192 640l128-160L192 320l192 0 128-198.4L640 320l192 0-128 166.4L832 640z" p-id="8184"></path></svg>