<?xml version="1.0" standalone="no"?><!DOCTYPE svg PUBLIC "-//W3C//DTD SVG 1.1//EN" "http://www.w3.org/Graphics/SVG/1.1/DTD/svg11.dtd"><svg t="1562898166742" class="icon" viewBox="0 0 1024 1024" version="1.1" xmlns="http://www.w3.org/2000/svg" p-id="11167" xmlns:xlink="http://www.w3.org/1999/xlink" width="128" height="128"><defs><style type="text/css"></style></defs><path d="M510.740494 266.264901c-132.898346 0-240.637295 107.736901-240.637295 240.637295 0 132.89937 107.738949 240.637295 240.637295 240.637295 132.900394 0 240.637295-107.737925 240.637295-240.637295C751.377789 374.001802 643.640888 266.264901 510.740494 266.264901zM510.740494 686.100182c-98.96644 0-179.197986-80.230522-179.197986-179.197986 0-98.968488 80.231546-179.197986 179.197986-179.197986 98.968488 0 179.197986 80.229498 179.197986 179.197986C689.93848 605.870684 609.708982 686.100182 510.740494 686.100182z" p-id="11168" ></path><path d="M932.441482 561.892426c-8.249251-10.023823-7.173039-14.822233-7.219119-16.981825-0.159742-7.174063-0.13619-55.514512 0-61.617483 0.046079-2.158568-1.030132-6.958002 7.219119-16.980801 18.367282-21.806859 67.815686-80.516215 88.681499-105.286497 5.215173-6.742964 1.731565-16.668485 1.731565-16.668485l-22.506243-37.185118-54.703513-90.399752-21.782283-35.982956c0 0-5.305284-10.373003-15.783759-7.567275-31.214241 6.743988-130.540101 27.816647-148.422012 31.609501-17.530683-11.078531-60.571991-38.278738-77.291675-48.838107-8.978331-5.960637-11.438975-13.766501-11.438975-13.766501s-34.110081-99.474338-45.478401-132.632109c-3.004382-10.395531-14.653275-9.567124-14.653275-9.567124l-42.155558-0.007168-105.89577 0-43.562518 0c0 0-10.324876 2.154472-13.418345 10.089359-10.496906 30.609064-35.372658 103.148409-44.612107 130.093642-4.346831 12.220279-9.023387 13.779813-10.854278 14.935896-17.709881 11.190146-64.498987 40.75679-80.660597 50.966979-18.066229-3.88194-120.345271-25.872093-151.621976-32.627345-10.478474-2.806752-15.782735 7.565227-15.782735 7.565227l-98.992039 163.569873c0 0-3.482585 9.92552 1.731565 16.666437 20.864789 24.771306 70.315242 83.481686 88.681499 105.287521 8.247203 10.023823 7.170991 14.822233 7.219119 16.981825 0.153598 7.013297 0.712696 72.526033-4.737995 77.294747-18.367282 21.805835-70.341865 81.562731-91.205631 106.335061-5.216197 6.740916-1.732589 16.667461-1.732589 16.667461l98.993063 163.568849c0 0 5.303236 10.373003 15.781711 7.565227 34.352766-7.420845 137.402872-29.69157 137.402872-29.69157s7.974822-1.93329 17.732409 2.654178c14.666587 7.303086 75.553967 37.844567 77.192348 38.882891 1.830891 1.155059 6.506423 2.714593 10.854278 14.934872 9.239448 26.944209 34.115201 99.484578 44.612107 130.093642 3.093469 7.934887 13.418345 10.089359 13.418345 10.089359l43.562518 0 105.89577 0 42.155558-0.007168c0 0 11.648893 0.829431 14.653275-9.567124 11.369344-33.158795 45.478401-132.632109 45.478401-132.632109s2.460644-7.805864 11.438975-13.766501c6.396856-4.039635 62.819646-34.16128 70.581479-38.026837 9.756562-4.586444 17.732409-2.654178 17.732409-2.654178s103.050106 22.270726 137.400824 29.69157c10.478474 2.807776 15.783759-7.565227 15.783759-7.565227l21.782283-35.98398 54.703513-90.398728 22.506243-37.186142c0 0 3.482585-9.926544-1.731565-16.667461C1000.257168 642.407617 950.808764 583.698261 932.441482 561.892426zM945.870067 692.487822c-10.476426 17.308477-36.138602 59.717985-49.459668 81.731689-5.052359 8.348578-12.13836 12.951406-18.437937 11.609982-24.074993-5.129158-84.546634-18.006838-107.939651-22.988542-16.575302-3.268571-25.155301 0.891894-28.096196 2.34903-14.406494 7.138224-99.610528 53.781923-107.778885 58.965353-2.769889 1.758188-10.777479 6.933426-16.533318 22.77248-7.805864 22.541059-27.983557 80.818292-36.017771 104.019823-2.101224 6.070204-9.713555 9.741203-19.493669 9.741203-25.787102 0-75.465904 0-95.742924 0-12.11788 0.056319-17.06784-11.069316-17.06784-11.069316s-28.354241-81.694826-37.803607-108.925752c-3.273691-7.327662-2.476004-9.780114-11.57107-14.731098-6.891443-4.375503-97.86258-51.876281-115.818218-60.773717-2.939871-1.457136-11.522942-5.617601-28.096196-2.34903-23.393017 4.981704-83.866705 17.859383-107.939651 22.988542-6.301625 1.342449-13.385578-3.261403-18.436913-11.609982-13.32209-22.013705-38.98529-64.423212-49.460692-81.731689-6.307769-10.313612 0.68812-20.28726 0.68812-20.28726s55.512464-66.40975 74.01696-88.543261c4.604876-6.578102 7.12184-7.163823 6.677429-17.486651 0.175102-7.306158 0.286717-93.786082 0.043008-103.883632 0.446459-10.321804-2.070505-10.908549-6.676405-17.485627-18.504496-22.134535-74.01696-88.544285-74.01696-88.544285s-6.995889-9.972624-0.68812-20.286236c10.474378-17.308477 36.138602-59.717985 49.459668-81.732713 5.052359-8.347554 12.136312-12.951406 18.437937-11.609982 24.072945 5.129158 84.546634 18.007862 107.939651 22.989566 23.893747 7.872424 36.506214-0.705528 40.849973-4.280272l0.023552 0.037888c0 0 77.24662-49.031641 102.996858-65.377569 9.095066-4.950984 8.297379-7.402413 11.57107-14.731098 9.449366-27.23195 37.803607-108.925752 37.803607-108.925752s4.94996-11.124611 17.06784-11.069316c20.27702 0 69.955822 0 95.742924 0 9.780114 0 17.392445 3.670999 19.493669 9.741203 8.034214 23.201531 28.211907 81.478764 36.017771 104.019823 5.754815 15.839054 13.762405 21.014292 16.533318 22.77248 23.189243 14.714715 89.314324 56.655235 99.012519 62.807358 0.984053 0.816119 17.815352 9.634708 36.861538 4.748235 20.761367-4.420558 70.737125-15.064919 98.544556-20.988692 3.520472-0.748536 20.64668-4.752331 27.833031 9.610132 13.321066 22.013705 38.982218 64.424236 49.459668 81.731689 6.307769 10.314636-0.68812 20.288284-0.68812 20.288284s-55.514512 66.408726-74.019008 88.542237c-4.604876 6.578102-7.12184 7.164847-6.675381 17.485627-0.288765 11.995001-0.244733 94.001119 0 104.139629-0.447483 10.322828 2.069481 10.908549 6.675381 17.486651 18.504496 22.133511 74.019008 88.543261 74.019008 88.543261S952.177836 682.17421 945.870067 692.487822z" p-id="11169"></path></svg>
