<?xml version="1.0" standalone="no"?><!DOCTYPE svg PUBLIC "-//W3C//DTD SVG 1.1//EN" "http://www.w3.org/Graphics/SVG/1.1/DTD/svg11.dtd"><svg t="1562896993159" class="icon" viewBox="0 0 1024 1024" version="1.1" xmlns="http://www.w3.org/2000/svg" p-id="7814" xmlns:xlink="http://www.w3.org/1999/xlink" width="128" height="128"><defs><style type="text/css"></style></defs><path d="M262.3 325.3c12-13.9 18.4-30.1 17.4-49.8 0-19.3-5.3-35.9-17.4-49.8-12.1-13.9-26.5-20.4-43.2-20.4-16.7 0-31.1 6.5-43.2 20.4-12 13.9-17.7 30.5-17.7 49.8-0.3 18.7 6.1 36.8 17.7 49.8 12 13.9 26.4 20.4 43.1 20.4 16.4 0.4 32-7 43.3-20.4z m520.3 263.5c0 19.2-6.3 35.6-17.2 49.4L533 907.4c-12.6 13.4-26.8 19.9-43.4 19.9-16.6 0-30.8-6.1-42.7-19.9L107.7 514.7c-12.6-13.8-22.2-32.2-30.8-56-8.6-23-12.6-44.8-12.6-64V167c0-19.1 6.3-35.6 18.2-49.4 11.9-13.8 26.2-21.1 42.7-21.1h197.4c16.6 0 34.8 4.6 55.3 14.6 19.9 10 36.4 21.8 48.3 35.7l339.1 391.8c11.7 14.5 17.3 31 17.3 50.2z" p-id="7815"></path><path d="M942.5 537.9L605.2 146.7c-11.9-13.8-28.3-25.7-48.1-35.6-20.4-10-38.5-14.6-55-14.6h-106c16.5 0 35.2 4.6 55 14.6 20.4 10 36.2 21.1 48.1 35.6l337.3 391.2c11.9 14.6 17.4 31.1 17.4 50.2 0 19.2-5.6 35.6-17.4 49.4l-221 257.9c9.6 11.1 18.1 19.2 25 24.5 6.9 5.4 16.5 7.2 27.7 7.2 16.5 0 30.7-6.5 43.2-20.3L942.6 637c11.9-13.8 17.1-30.3 17.1-49.4-0.1-19-5.7-34.7-17.2-49.7z" p-id="7816"></path></svg>